# xmcd
#
# Track frame offsets: 
#        150
#        16426
#        29717
#        42475
#        59070
#        84471
#        99678
#        112352
#        128829
#        153215
#        168828
#        182345
#        197407
#        210721
#        233492
#        249754
#        265604
#        279127
#        293156
#        308339
#        314187
#
# Disc length: 4381 seconds
#
# Revision: 0
# Processed by: cddbd v1.5.1PL0 Copyright (c) Steve Scherf et al.
# Submitted via: ExactAudioCopy v0.95a4
#
DISCID=1f111b15
DTITLE=Canterbury Country Dance Orchestra - Canterbury Country Dance O
DTITLE=rchestra with Dudley Laufman
DYEAR=2001
DGENRE=Country
TTITLE0=Earl of Mansfield
TTITLE1=Chorus Jig
TTITLE2=Coleraine
TTITLE3=Mistwold
TTITLE4=Starr Label Reel - Ned Kendell
TTITLE5=Maguinnis's Delight
TTITLE6=Prince William II
TTITLE7=Scotch Hornpipe
TTITLE8=Glenn Towle
TTITLE9=Reel de Jeunne Marie
TTITLE10=Madame Bonaparte
TTITLE11=Farewell to Whiskey
TTITLE12=Prince William
TTITLE13=Brisk Young Lads - 2 and 6 Penny Girl
TTITLE14=Petronella
TTITLE15=Irish American Reel
TTITLE16=La Grondeuse
TTITLE17=Poor Auld Woman
TTITLE18=Hunstmen's Chorus
TTITLE19=Petronella (with calls)
TTITLE20=Meeting of the Waters
EXTD=
EXTT0=
EXTT1=
EXTT2=
EXTT3=
EXTT4=
EXTT5=
EXTT6=
EXTT7=
EXTT8=
EXTT9=
EXTT10=
EXTT11=
EXTT12=
EXTT13=
EXTT14=
EXTT15=
EXTT16=
EXTT17=
EXTT18=
EXTT19=
EXTT20=
PLAYORDER=
